
<svg width="23" height="23" viewBox="0 0 23 23" fill="none" xmlns="http://www.w3.org/2000/svg">
<path d="M5.03125 10.7812H19.4062C19.5969 10.7812 19.7797 10.857 19.9145 10.9918C20.0493 11.1266 20.125 11.3094 20.125 11.5C20.125 11.6906 20.0493 11.8734 19.9145 12.0082C19.7797 12.143 19.5969 12.2188 19.4062 12.2188H5.03125C4.84063 12.2188 4.65781 12.143 4.52302 12.0082C4.38823 11.8734 4.3125 11.6906 4.3125 11.5C4.3125 11.3094 4.38823 11.1266 4.52302 10.9918C4.65781 10.857 4.84063 10.7812 5.03125 10.7812Z" fill="#fff"/>
<path d="M5.32882 11.4999L11.2901 17.4598C11.4251 17.5947 11.5009 17.7778 11.5009 17.9687C11.5009 18.1595 11.4251 18.3426 11.2901 18.4775C11.1552 18.6125 10.9721 18.6883 10.7813 18.6883C10.5904 18.6883 10.4073 18.6125 10.2724 18.4775L3.80363 12.0088C3.73669 11.942 3.68359 11.8627 3.64735 11.7754C3.61112 11.6881 3.59247 11.5944 3.59247 11.4999C3.59247 11.4054 3.61112 11.3117 3.64735 11.2244C3.68359 11.1371 3.73669 11.0578 3.80363 10.991L10.2724 4.52228C10.4073 4.38731 10.5904 4.31149 10.7813 4.31149C10.9721 4.31149 11.1552 4.38731 11.2901 4.52228C11.4251 4.65724 11.5009 4.84029 11.5009 5.03115C11.5009 5.22202 11.4251 5.40506 11.2901 5.54003L5.32882 11.4999Z" fill="#fff"/>
</svg>
