<svg width="23" height="22" viewBox="0 0 23 22" fill="none" xmlns="http://www.w3.org/2000/svg">
<path fill-rule="evenodd" clip-rule="evenodd" d="M11.4996 0.166992C17.4777 0.166992 22.3333 5.02261 22.3333 11.0008C22.3333 16.9789 17.4777 21.8324 11.4996 21.8324C5.5214 21.8324 0.667969 16.9789 0.667969 11.0008C0.667969 5.02261 5.5214 0.166992 11.4996 0.166992ZM11.4996 1.44273C6.226 1.44273 1.94146 5.72503 1.94146 11.0008C1.94146 16.2765 6.226 20.5588 11.4996 20.5588C16.7753 20.5588 21.0576 16.2765 21.0576 11.0008C21.0576 5.72503 16.7753 1.44273 11.4996 1.44273ZM10.3617 19.2C6.33099 18.6442 3.22372 15.1846 3.22372 11.003C3.22372 8.52811 4.31133 6.30706 6.03344 4.78845L7.79928 10.6682C7.88025 10.9351 8.12533 11.1189 8.40542 11.1189H16.0291C16.377 11.1189 16.6594 10.8366 16.6594 10.4865C16.6594 10.1386 16.377 9.85635 16.0291 9.85635H8.87372L7.11216 3.98539C8.3835 3.1867 9.88905 2.72499 11.4996 2.72499C16.0685 2.72499 19.7775 6.434 19.7775 11.003C19.7775 15.5019 16.1779 19.1672 11.703 19.2766L11.0881 17.2262C11.0312 17.038 10.9568 16.6157 11.2019 16.2393C11.5082 15.7689 12.2347 15.445 13.7227 15.445C14.3879 15.445 15.1407 15.0708 15.7119 14.5019C16.283 13.933 16.6594 13.1824 16.6594 12.515C16.6594 12.1671 16.377 11.8848 16.0291 11.8848H9.01369C8.81456 11.8848 8.62642 11.9789 8.50607 12.1386C8.3879 12.2984 8.35072 12.5063 8.4098 12.6966L10.3617 19.2ZM12.0422 5.08168C10.9766 5.08168 10.1122 5.94823 10.1122 7.01388C10.1122 8.07954 10.9766 8.94384 12.0422 8.94384C13.1079 8.94384 13.9722 8.07954 13.9722 7.01388C13.9722 5.94823 13.1079 5.08168 12.0422 5.08168Z" fill="#42919E"/>
</svg>
