<svg width="278" height="65" viewBox="0 0 278 65" fill="none" xmlns="http://www.w3.org/2000/svg">
<g clip-path="url(#clip0_2001_7622)">
<rect width="278" height="65" rx="16" fill="url(#paint0_linear_2001_7622)"/>
<g filter="url(#filter0_f_2001_7622)">
<rect width="278" height="50" rx="16" fill="#EB8181"/>
</g>
<path d="M41.378 23.424H51.714V28.32H41.378V23.424ZM41.826 36H35.49V13.6H53.058V18.496H41.826V36ZM55.7333 36V12.256H61.8133V36H55.7333ZM73.0605 36.288C71.6525 36.288 70.3832 36.0107 69.2525 35.456C68.1432 34.9013 67.2685 34.0373 66.6285 32.864C66.0098 31.6693 65.7005 30.1653 65.7005 28.352V18.656H71.7805V27.36C71.7805 28.704 72.0258 29.664 72.5165 30.24C73.0285 30.816 73.7432 31.104 74.6605 31.104C75.2578 31.104 75.8018 30.9653 76.2925 30.688C76.7832 30.4107 77.1778 29.9733 77.4765 29.376C77.7752 28.7573 77.9245 27.968 77.9245 27.008V18.656H84.0045V36H78.2125V31.104L79.3325 32.48C78.7352 33.76 77.8712 34.72 76.7405 35.36C75.6098 35.9787 74.3832 36.288 73.0605 36.288ZM94.2248 36.288C92.7528 36.288 91.3128 36.1173 89.9048 35.776C88.5181 35.4347 87.3981 35.008 86.5448 34.496L88.3688 30.336C89.1794 30.8267 90.1288 31.2213 91.2168 31.52C92.3048 31.7973 93.3714 31.936 94.4167 31.936C95.4408 31.936 96.1448 31.8293 96.5288 31.616C96.9341 31.4027 97.1368 31.1147 97.1368 30.752C97.1368 30.4107 96.9448 30.1653 96.5608 30.016C96.1981 29.8453 95.7074 29.7173 95.0888 29.632C94.4914 29.5467 93.8301 29.4507 93.1048 29.344C92.3794 29.2373 91.6434 29.0987 90.8968 28.928C90.1714 28.736 89.4994 28.4587 88.8808 28.096C88.2834 27.712 87.8034 27.2 87.4408 26.56C87.0781 25.92 86.8968 25.1093 86.8968 24.128C86.8968 23.0187 87.2168 22.0373 87.8568 21.184C88.5181 20.3093 89.4781 19.6267 90.7368 19.136C91.9954 18.624 93.5314 18.368 95.3448 18.368C96.5608 18.368 97.7874 18.496 99.0248 18.752C100.283 18.9867 101.339 19.3493 102.193 19.84L100.369 23.968C99.5154 23.4773 98.6621 23.1467 97.8088 22.976C96.9554 22.784 96.1448 22.688 95.3767 22.688C94.3528 22.688 93.6274 22.8053 93.2008 23.04C92.7954 23.2747 92.5928 23.5627 92.5928 23.904C92.5928 24.2453 92.7741 24.512 93.1368 24.704C93.4994 24.8747 93.9794 25.0133 94.5768 25.12C95.1954 25.2053 95.8674 25.3013 96.5928 25.408C97.3181 25.4933 98.0434 25.632 98.7688 25.824C99.5154 26.016 100.187 26.304 100.785 26.688C101.403 27.0507 101.894 27.552 102.257 28.192C102.619 28.8107 102.801 29.6107 102.801 30.592C102.801 31.6587 102.47 32.6187 101.809 33.472C101.169 34.3253 100.209 35.008 98.9288 35.52C97.6701 36.032 96.1021 36.288 94.2248 36.288ZM116.717 18.368C118.061 18.368 119.277 18.6453 120.365 19.2C121.453 19.7333 122.306 20.5653 122.925 21.696C123.565 22.8267 123.885 24.288 123.885 26.08V36H117.805V27.072C117.805 25.8347 117.549 24.9387 117.037 24.384C116.546 23.808 115.853 23.52 114.957 23.52C114.317 23.52 113.73 23.6693 113.197 23.968C112.663 24.2453 112.247 24.6827 111.949 25.28C111.65 25.8773 111.501 26.656 111.501 27.616V36H105.421V12.256H111.501V23.584L110.093 22.144C110.754 20.8853 111.661 19.9467 112.813 19.328C113.965 18.688 115.266 18.368 116.717 18.368ZM137.719 36V18.848C137.719 16.7573 138.337 15.0933 139.575 13.856C140.833 12.5973 142.625 11.968 144.951 11.968C145.697 11.968 146.433 12.0427 147.159 12.192C147.884 12.3413 148.492 12.5653 148.983 12.864L147.479 17.152C147.223 17.0027 146.935 16.8853 146.615 16.8C146.295 16.6933 145.975 16.64 145.655 16.64C145.015 16.64 144.513 16.832 144.151 17.216C143.809 17.5787 143.639 18.144 143.639 18.912V20.16L143.799 22.688V36H137.719ZM135.191 23.84V19.296H147.767V23.84H135.191ZM158.531 36.288C156.632 36.288 154.947 35.904 153.475 35.136C152.003 34.368 150.84 33.312 149.987 31.968C149.155 30.6027 148.739 29.0453 148.739 27.296C148.739 25.5467 149.155 24 149.987 22.656C150.84 21.312 152.003 20.2667 153.475 19.52C154.947 18.752 156.632 18.368 158.531 18.368C160.43 18.368 162.115 18.752 163.587 19.52C165.08 20.2667 166.243 21.312 167.075 22.656C167.907 24 168.323 25.5467 168.323 27.296C168.323 29.0453 167.907 30.6027 167.075 31.968C166.243 33.312 165.08 34.368 163.587 35.136C162.115 35.904 160.43 36.288 158.531 36.288ZM158.531 31.456C159.235 31.456 159.854 31.296 160.387 30.976C160.942 30.656 161.379 30.1867 161.699 29.568C162.019 28.928 162.179 28.1707 162.179 27.296C162.179 26.4213 162.019 25.6853 161.699 25.088C161.379 24.4693 160.942 24 160.387 23.68C159.854 23.36 159.235 23.2 158.531 23.2C157.848 23.2 157.23 23.36 156.675 23.68C156.142 24 155.704 24.4693 155.363 25.088C155.043 25.6853 154.883 26.4213 154.883 27.296C154.883 28.1707 155.043 28.928 155.363 29.568C155.704 30.1867 156.142 30.656 156.675 30.976C157.23 31.296 157.848 31.456 158.531 31.456ZM171.14 36V18.656H176.932V23.712L176.068 22.272C176.58 20.9707 177.412 20 178.564 19.36C179.716 18.6987 181.113 18.368 182.756 18.368V23.84C182.478 23.7973 182.233 23.776 182.02 23.776C181.828 23.7547 181.614 23.744 181.38 23.744C180.142 23.744 179.14 24.0853 178.372 24.768C177.604 25.4293 177.22 26.5173 177.22 28.032V36H171.14ZM202.8 36.448C200.965 36.448 199.194 36.224 197.488 35.776C195.802 35.3067 194.426 34.7093 193.36 33.984L195.44 29.312C196.442 29.952 197.594 30.4853 198.896 30.912C200.218 31.3173 201.53 31.52 202.832 31.52C203.706 31.52 204.41 31.4453 204.944 31.296C205.477 31.1253 205.861 30.912 206.096 30.656C206.352 30.3787 206.48 30.0587 206.48 29.696C206.48 29.184 206.245 28.7787 205.776 28.48C205.306 28.1813 204.698 27.936 203.952 27.744C203.205 27.552 202.373 27.36 201.456 27.168C200.56 26.976 199.653 26.7307 198.736 26.432C197.84 26.1333 197.018 25.7493 196.272 25.28C195.525 24.7893 194.917 24.16 194.448 23.392C193.978 22.6027 193.743 21.6107 193.743 20.416C193.743 19.072 194.106 17.856 194.832 16.768C195.578 15.68 196.688 14.8053 198.16 14.144C199.632 13.4827 201.466 13.152 203.664 13.152C205.136 13.152 206.576 13.3227 207.984 13.664C209.413 13.984 210.682 14.464 211.792 15.104L209.84 19.808C208.773 19.232 207.717 18.8053 206.672 18.528C205.626 18.2293 204.613 18.08 203.632 18.08C202.757 18.08 202.053 18.176 201.52 18.368C200.986 18.5387 200.602 18.7733 200.368 19.072C200.133 19.3707 200.016 19.712 200.016 20.096C200.016 20.5867 200.24 20.9813 200.688 21.28C201.157 21.5573 201.765 21.792 202.512 21.984C203.28 22.1547 204.112 22.336 205.008 22.528C205.925 22.72 206.832 22.9653 207.728 23.264C208.645 23.5413 209.477 23.9253 210.224 24.416C210.97 24.8853 211.568 25.5147 212.016 26.304C212.485 27.072 212.72 28.0427 212.72 29.216C212.72 30.5173 212.346 31.7227 211.6 32.832C210.874 33.92 209.776 34.7947 208.304 35.456C206.853 36.1173 205.018 36.448 202.8 36.448ZM224.062 36.288C222.164 36.288 220.478 35.904 219.006 35.136C217.534 34.368 216.372 33.312 215.518 31.968C214.686 30.6027 214.27 29.0453 214.27 27.296C214.27 25.5467 214.686 24 215.518 22.656C216.372 21.312 217.534 20.2667 219.006 19.52C220.478 18.752 222.164 18.368 224.062 18.368C225.961 18.368 227.646 18.752 229.118 19.52C230.612 20.2667 231.774 21.312 232.606 22.656C233.438 24 233.854 25.5467 233.854 27.296C233.854 29.0453 233.438 30.6027 232.606 31.968C231.774 33.312 230.612 34.368 229.118 35.136C227.646 35.904 225.961 36.288 224.062 36.288ZM224.062 31.456C224.766 31.456 225.385 31.296 225.918 30.976C226.473 30.656 226.91 30.1867 227.23 29.568C227.55 28.928 227.71 28.1707 227.71 27.296C227.71 26.4213 227.55 25.6853 227.23 25.088C226.91 24.4693 226.473 24 225.918 23.68C225.385 23.36 224.766 23.2 224.062 23.2C223.38 23.2 222.761 23.36 222.206 23.68C221.673 24 221.236 24.4693 220.894 25.088C220.574 25.6853 220.414 26.4213 220.414 27.296C220.414 28.1707 220.574 28.928 220.894 29.568C221.236 30.1867 221.673 30.656 222.206 30.976C222.761 31.296 223.38 31.456 224.062 31.456ZM236.671 36V12.256H242.751V36H236.671Z" fill="#842B2B"/>
</g>
<defs>
<filter id="filter0_f_2001_7622" x="-8" y="-8" width="294" height="66" filterUnits="userSpaceOnUse" color-interpolation-filters="sRGB">
<feFlood flood-opacity="0" result="BackgroundImageFix"/>
<feBlend mode="normal" in="SourceGraphic" in2="BackgroundImageFix" result="shape"/>
<feGaussianBlur stdDeviation="4" result="effect1_foregroundBlur_2001_7622"/>
</filter>
<linearGradient id="paint0_linear_2001_7622" x1="0" y1="32.5" x2="278" y2="32.5" gradientUnits="userSpaceOnUse">
<stop stop-color="#822C2C"/>
<stop offset="0.0664819" stop-color="#B74747"/>
<stop offset="0.946953" stop-color="#A93C3C"/>
<stop offset="1" stop-color="#983030"/>
</linearGradient>
<clipPath id="clip0_2001_7622">
<rect width="278" height="65" rx="16" fill="white"/>
</clipPath>
</defs>
</svg>
