<svg width="189" height="105" viewBox="0 0 189 105" fill="none" xmlns="http://www.w3.org/2000/svg">
<path fill-rule="evenodd" clip-rule="evenodd" d="M119.456 33.138C119.456 38.5636 116.111 43.2081 111.372 45.122C111.368 45.1237 111.365 45.1249 111.362 45.1261C110.035 45.6563 109.164 46.9414 109.164 48.3712V48.3782C109.16 49.8779 109.16 51.1379 109.16 51.1379C109.16 52.5875 107.985 53.7629 106.535 53.7629H93.076C91.9169 53.7629 90.8949 53.0028 90.5618 51.8928L85.1566 33.8922C84.918 33.0977 85.0691 32.2367 85.5644 31.5705C86.0596 30.9049 86.8407 30.5124 87.6708 30.5124H116.831C118.281 30.5124 119.456 31.6878 119.456 33.138ZM76.6668 5.61971C76.2503 4.23195 77.0384 2.76721 78.4261 2.35013C79.8139 1.93363 81.2786 2.72171 81.6951 4.10946L87.0916 22.0803H116.831C118.28 22.0803 119.456 23.2563 119.456 24.7053C119.456 26.1543 118.28 27.3303 116.831 27.3303H85.1386C83.9795 27.3303 82.958 26.5702 82.6244 25.4601L76.6668 5.61971ZM100.262 2.23929C104.69 2.23929 108.286 5.83496 108.286 10.2636C108.286 14.6923 104.69 18.288 100.262 18.288C95.8328 18.288 92.2372 14.6923 92.2372 10.2636C92.2372 5.83496 95.8328 2.23929 100.262 2.23929Z" fill="#B8E6EE"/>
<g clip-path="url(#clip0_2015_3077)">
<path d="M21.4095 92.0622C21.4095 93.9217 21.1562 95.6004 20.6496 97.1096C20.143 98.6244 19.3683 99.913 18.3263 100.981C17.2837 102.05 15.9596 102.869 14.3528 103.451C12.746 104.033 10.8425 104.322 8.64215 104.322H0.000610352V79.6613H8.64215C10.8425 79.6613 12.746 79.9496 14.3528 80.5318C15.9596 81.1139 17.2837 81.9448 18.3263 83.0243C19.3683 84.1039 20.143 85.4039 20.6496 86.9243C21.1562 88.4448 21.4095 90.1574 21.4095 92.0622ZM14.4177 92.0622C14.4177 89.5752 13.8896 87.7044 12.8329 86.4383C11.7762 85.1722 10.408 84.5391 8.72903 84.5391H7.03539V99.4439H8.72903C10.408 99.4439 11.7762 98.8109 12.8329 97.5448C13.8896 96.2844 14.4177 94.453 14.4177 92.0622Z" fill="#ACE7F0"/>
<path d="M45.9016 95.1991C45.9016 96.567 45.7059 97.8444 45.3154 99.0257C44.9245 100.213 44.309 101.247 43.4695 102.129C42.63 103.01 41.5445 103.706 40.2125 104.22C38.881 104.729 37.2742 104.983 35.3927 104.983C33.5106 104.983 31.9184 104.729 30.6158 104.22C29.3131 103.706 28.249 103.01 27.4237 102.129C26.5988 101.247 26.0053 100.213 25.6431 99.0257C25.2815 97.8444 25.1003 96.567 25.1003 95.1991V79.6613H32.0922V94.7074C32.0922 95.4083 32.143 96.0582 32.244 96.6574C32.3455 97.2622 32.5261 97.7822 32.7867 98.2117C33.0474 98.6413 33.3949 98.9804 33.8293 99.2348C34.2632 99.4948 34.8279 99.6191 35.5224 99.6191C36.2175 99.6191 36.7823 99.4948 37.2161 99.2348C37.6505 98.9804 37.998 98.6413 38.2587 98.2117C38.5188 97.7822 38.6999 97.2622 38.8015 96.6574C38.9024 96.0582 38.9532 95.4083 38.9532 94.7074V79.6613H45.9016V95.1991Z" fill="#ACE7F0"/>
<path d="M72.0435 104.322L72.3041 87.3935H72.1304L66.963 104.322H62.0558L57.0617 87.3935H56.9314L57.1486 104.322H50.8518V79.6613H59.6242L64.5743 95.5439H64.7481L69.5684 79.6613H78.8616V104.322H72.0435Z" fill="#ACE7F0"/>
<path d="M102.977 87.7321C102.977 89.1056 102.717 90.2869 102.195 91.2874C101.675 92.2822 100.98 93.1074 100.111 93.7574C99.2424 94.4074 98.2585 94.8935 97.1583 95.2044C96.0582 95.5152 94.9434 95.6735 93.8145 95.6735H90.8181V104.66H84V80H93.5538C94.654 80 95.7615 80.13 96.8757 80.3843C97.9905 80.6387 99.0038 81.0626 99.9155 81.656C100.828 82.2495 101.566 83.0409 102.13 84.0413C102.695 85.0361 102.977 86.2682 102.977 87.7321ZM96.4633 87.8396C96.4633 86.7204 96.1304 85.9235 95.4647 85.4317C94.7989 84.9456 93.9882 84.7026 93.0325 84.7026H90.8181V91.1461H93.0325C93.9882 91.1461 94.7989 90.8635 95.4647 90.2926C96.1304 89.7217 96.4633 88.9078 96.4633 87.8396Z" fill="#ACE7F0"/>
<path d="M126.196 101.643C125.356 102.592 124.256 103.389 122.895 104.028C121.534 104.667 119.797 104.983 117.684 104.983C115.889 104.983 114.26 104.667 112.799 104.028C111.337 103.389 110.084 102.49 109.042 101.343C108 100.196 107.19 98.8222 106.611 97.2339C106.031 95.6457 105.742 93.8935 105.742 91.9943C105.742 90.0613 106.031 88.2978 106.611 86.6983C107.19 85.093 108 83.7252 109.042 82.5891C110.084 81.4474 111.337 80.5657 112.799 79.9383C114.26 79.3109 115.889 79 117.684 79C119.74 79 121.455 79.294 122.83 79.8874C124.205 80.4809 125.313 81.2156 126.152 82.0974L122.417 86.1387C121.897 85.5848 121.31 85.1439 120.659 84.8161C120.007 84.4939 119.19 84.33 118.205 84.33C117.279 84.33 116.475 84.5278 115.795 84.9235C115.115 85.3135 114.536 85.8561 114.058 86.54C113.581 87.224 113.226 88.0378 112.994 88.9818C112.763 89.92 112.647 90.9261 112.647 91.9943C112.647 93.0626 112.763 94.0574 112.994 94.9844C113.226 95.917 113.581 96.7309 114.058 97.4261C114.536 98.1213 115.122 98.6696 115.817 99.0652C116.512 99.4552 117.322 99.6531 118.249 99.6531C119.175 99.6531 119.986 99.4666 120.68 99.0992C121.375 98.7261 121.925 98.2853 122.33 97.7766L126.196 101.643Z" fill="#ACE7F0"/>
<path d="M151.183 91.9209C151.183 93.8709 150.907 95.657 150.359 97.2679C149.807 98.8844 149.028 100.258 148.012 101.394C146.997 102.536 145.761 103.417 144.3 104.045C142.839 104.672 141.192 104.983 139.369 104.983C137.547 104.983 135.903 104.672 134.442 104.045C132.98 103.417 131.742 102.536 130.729 101.394C129.716 100.258 128.934 98.8844 128.384 97.2679C127.834 95.657 127.559 93.8709 127.559 91.9209C127.559 89.9709 127.827 88.2018 128.362 86.6079C128.898 85.0196 129.672 83.663 130.685 82.5326C131.699 81.4078 132.936 80.5374 134.398 79.9213C135.86 79.3052 137.518 79 139.369 79C141.192 79 142.839 79.3052 144.3 79.9213C145.761 80.5374 146.997 81.4078 148.012 82.5326C149.028 83.663 149.807 85.0196 150.359 86.6079C150.907 88.2018 151.183 89.9709 151.183 91.9209ZM144.063 91.9209C144.063 90.8526 143.962 89.8635 143.759 88.9422C143.555 88.0266 143.256 87.2296 142.867 86.557C142.478 85.8843 141.993 85.3587 141.412 84.9744C140.83 84.59 140.153 84.3979 139.369 84.3979C138.589 84.3979 137.901 84.59 137.308 84.9744C136.714 85.3587 136.222 85.8843 135.831 86.557C135.44 87.2296 135.151 88.0266 134.963 88.9422C134.775 89.8635 134.68 90.8526 134.68 91.9209C134.68 92.9891 134.775 93.9896 134.963 94.9165C135.151 95.8435 135.44 96.6461 135.831 97.3187C136.222 97.9913 136.714 98.5283 137.308 98.9239C137.901 99.3196 138.589 99.5174 139.369 99.5174C140.153 99.5174 140.83 99.3196 141.412 98.9239C141.993 98.5283 142.478 97.9913 142.867 97.3187C143.256 96.6461 143.555 95.8435 143.759 94.9165C143.962 93.9896 144.063 92.9891 144.063 91.9209Z" fill="#ACE7F0"/>
<path d="M162.056 80H155.065V104.661H162.056V80Z" fill="#ACE7F0"/>
<path d="M181.147 104.322L174.027 89.3095H173.897L174.066 104.322H167.86V79.6613H175.499L182.58 94.8826H182.71L182.58 79.6613H188.571V104.322H181.147Z" fill="#ACE7F0"/>
</g>
<defs>
<clipPath id="clip0_2015_3077">
<rect width="189" height="26" fill="white" transform="translate(0 79)"/>
</clipPath>
</defs>
</svg>
