
<svg width="173" height="102" viewBox="0 0 173 102" fill="none" xmlns="http://www.w3.org/2000/svg">
<path fill-rule="evenodd" clip-rule="evenodd" d="M107.461 33.138C107.461 38.5636 104.116 43.2081 99.3768 45.122C99.3733 45.1237 99.3704 45.1249 99.3669 45.1261C98.0398 45.6563 97.1689 46.9414 97.1689 48.3712V48.3782C97.1648 49.8779 97.1648 51.1379 97.1648 51.1379C97.1648 52.5875 95.99 53.7629 94.5398 53.7629H81.0811C79.922 53.7629 78.9 53.0028 78.567 51.8928L73.1618 33.8922C72.9232 33.0977 73.0743 32.2367 73.5695 31.5705C74.0648 30.9049 74.8458 30.5124 75.6759 30.5124H104.836C106.286 30.5124 107.461 31.6878 107.461 33.138ZM64.6719 5.61971C64.2554 4.23195 65.0435 2.76721 66.4312 2.35013C67.819 1.93363 69.2838 2.72171 69.7003 4.10946L75.0967 22.0803H104.836C106.285 22.0803 107.461 23.2563 107.461 24.7053C107.461 26.1543 106.285 27.3303 104.836 27.3303H73.1437C71.9846 27.3303 70.9632 26.5702 70.6295 25.4601L64.6719 5.61971ZM88.2666 2.23929C92.6953 2.23929 96.291 5.83496 96.291 10.2636C96.291 14.6923 92.6953 18.288 88.2666 18.288C83.838 18.288 80.2423 14.6923 80.2423 10.2636C80.2423 5.83496 83.838 2.23929 88.2666 2.23929Z" fill="#B8E6EE"/>
<path d="M21.524 89.1871C21.524 91.0149 21.2694 92.665 20.76 94.1483C20.2507 95.6372 19.4719 96.9038 18.4242 97.9538C17.376 99.0038 16.0448 99.8094 14.4293 100.382C12.8139 100.954 10.9001 101.237 8.68801 101.237H0V76.9983H8.68801C10.9001 76.9983 12.8139 77.2816 14.4293 77.8539C16.0448 78.4261 17.376 79.2427 18.4242 80.3038C19.4719 81.3649 20.2507 82.6427 20.76 84.1372C21.2694 85.6316 21.524 87.3149 21.524 89.1871ZM14.4946 89.1871C14.4946 86.7427 13.9637 84.9038 12.9013 83.6594C11.8389 82.415 10.4634 81.7927 8.77536 81.7927H7.07261V96.4427H8.77536C10.4634 96.4427 11.8389 95.8205 12.9013 94.5761C13.9637 93.3372 14.4946 91.5371 14.4946 89.1871Z" fill="#B8E6EE"/>
<path d="M46.148 92.2705C46.148 93.615 45.9512 94.8705 45.5587 96.0316C45.1656 97.1983 44.5468 98.215 43.7028 99.0816C42.8588 99.9483 41.7674 100.632 40.4282 101.137C39.0896 101.637 37.4742 101.887 35.5826 101.887C33.6903 101.887 32.0896 101.637 30.7799 101.137C29.4702 100.632 28.4005 99.9483 27.5707 99.0816C26.7414 98.215 26.1447 97.1983 25.7805 96.0316C25.417 94.8705 25.2349 93.615 25.2349 92.2705V76.9983H32.2643V91.7872C32.2643 92.4761 32.3154 93.1149 32.4169 93.7038C32.519 94.2983 32.7005 94.8094 32.9626 95.2316C33.2246 95.6538 33.574 95.9872 34.0108 96.2372C34.447 96.4927 35.0148 96.6149 35.713 96.6149C36.4118 96.6149 36.9796 96.4927 37.4158 96.2372C37.8525 95.9872 38.2019 95.6538 38.464 95.2316C38.7255 94.8094 38.9076 94.2983 39.0097 93.7038C39.1112 93.1149 39.1622 92.4761 39.1622 91.7872V76.9983H46.148V92.2705Z" fill="#B8E6EE"/>
<path d="M72.4304 101.237L72.6925 84.5983H72.5177L67.3226 101.237H62.389L57.368 84.5983H57.237L57.4554 101.237H51.1248V76.9983H59.9443L64.9211 92.6094H65.0958L69.942 76.9983H79.2852V101.237H72.4304Z" fill="#B8E6EE"/>
<path d="M103.865 84.5983C103.865 85.9483 103.603 87.1094 103.079 88.0927C102.556 89.0705 101.857 89.8816 100.984 90.5205C100.11 91.1594 99.1211 91.6372 98.015 91.9427C96.9089 92.2483 95.7881 92.4038 94.6531 92.4038H91.6407V101.237H84.7859V76.9983H94.3911C95.4972 76.9983 96.6106 77.126 97.7308 77.376C98.8517 77.626 99.8704 78.0427 100.787 78.626C101.704 79.2094 102.446 79.9872 103.014 80.9705C103.582 81.9483 103.865 83.1594 103.865 84.5983ZM97.3162 84.7038C97.3162 83.6038 96.9815 82.8205 96.3122 82.3372C95.6429 81.8594 94.8278 81.6205 93.867 81.6205H91.6407V87.9538H93.867C94.8278 87.9538 95.6429 87.676 96.3122 87.1149C96.9815 86.5538 97.3162 85.7538 97.3162 84.7038Z" fill="#B8E6EE"/>
<path d="M114.605 81.9649V86.8927H121.984V91.5816H114.649V101.237H107.576V76.9983H122.639V81.9649H114.605Z" fill="#B8E6EE"/>
<path d="M146.828 92.2705C146.828 93.615 146.63 94.8705 146.238 96.0316C145.841 97.1983 145.223 98.215 144.384 99.0816C143.538 99.9483 142.444 100.632 141.105 101.137C139.766 101.637 138.152 101.887 136.26 101.887C134.368 101.887 132.768 101.637 131.458 101.137C130.148 100.632 129.078 99.9483 128.249 99.0816C127.419 98.215 126.823 97.1983 126.459 96.0316C126.095 94.8705 125.913 93.615 125.913 92.2705V76.9983H132.942V91.7872C132.942 92.4761 132.993 93.1149 133.095 93.7038C133.197 94.2983 133.378 94.8094 133.641 95.2316C133.903 95.6538 134.252 95.9872 134.689 96.2372C135.125 96.4927 135.693 96.6149 136.392 96.6149C137.09 96.6149 137.658 96.4927 138.094 96.2372C138.53 95.9872 138.88 95.6538 139.142 95.2316C139.404 94.8094 139.586 94.2983 139.687 93.7038C139.789 93.1149 139.84 92.4761 139.84 91.7872V76.9983H146.828V92.2705Z" fill="#B8E6EE"/>
<path d="M165.161 101.237L158.002 86.4816H157.872L158.048 101.237H151.803V76.9983H159.488L166.601 91.9594H166.737L166.601 76.9983H172.631V101.237H165.161Z" fill="#B8E6EE"/>
</svg>
