<svg width="189" height="26" viewBox="0 0 189 26" fill="none" xmlns="http://www.w3.org/2000/svg">
<g clip-path="url(#clip0_28_1621)">
<path d="M21.4095 13.0622C21.4095 14.9217 21.1562 16.6004 20.6496 18.1096C20.143 19.6244 19.3683 20.913 18.3263 21.9813C17.2837 23.0496 15.9596 23.8691 14.3528 24.4513C12.746 25.0335 10.8425 25.3218 8.64215 25.3218H0.000610352V0.661316H8.64215C10.8425 0.661316 12.746 0.949599 14.3528 1.53177C15.9596 2.11395 17.2837 2.94477 18.3263 4.02433C19.3683 5.1039 20.143 6.40391 20.6496 7.92435C21.1562 9.44478 21.4095 11.1574 21.4095 13.0622ZM14.4177 13.0622C14.4177 10.5752 13.8896 8.70435 12.8329 7.43827C11.7762 6.17218 10.408 5.53914 8.72903 5.53914H7.03539V20.4439H8.72903C10.408 20.4439 11.7762 19.8109 12.8329 18.5448C13.8896 17.2844 14.4177 15.453 14.4177 13.0622Z" fill="#ACE7F0"/>
<path d="M45.9016 16.1991C45.9016 17.567 45.7059 18.8444 45.3154 20.0257C44.9245 21.2126 44.309 22.247 43.4695 23.1287C42.63 24.0104 41.5445 24.7056 40.2125 25.22C38.881 25.7287 37.2742 25.9831 35.3927 25.9831C33.5106 25.9831 31.9184 25.7287 30.6158 25.22C29.3131 24.7056 28.249 24.0104 27.4237 23.1287C26.5988 22.247 26.0053 21.2126 25.6431 20.0257C25.2815 18.8444 25.1003 17.567 25.1003 16.1991V0.661316H32.0922V15.7074C32.0922 16.4083 32.143 17.0582 32.244 17.6574C32.3455 18.2622 32.5261 18.7822 32.7867 19.2117C33.0474 19.6413 33.3949 19.9804 33.8293 20.2348C34.2632 20.4948 34.8279 20.6191 35.5224 20.6191C36.2175 20.6191 36.7823 20.4948 37.2161 20.2348C37.6505 19.9804 37.998 19.6413 38.2587 19.2117C38.5188 18.7822 38.6999 18.2622 38.8015 17.6574C38.9024 17.0582 38.9532 16.4083 38.9532 15.7074V0.661316H45.9016V16.1991Z" fill="#ACE7F0"/>
<path d="M72.0435 25.3218L72.3041 8.39345H72.1304L66.963 25.3218H62.0558L57.0617 8.39345H56.9314L57.1486 25.3218H50.8518V0.661316H59.6242L64.5743 16.5439H64.7481L69.5684 0.661316H78.8616V25.3218H72.0435Z" fill="#ACE7F0"/>
<path d="M102.977 8.73214C102.977 10.1056 102.717 11.2869 102.195 12.2874C101.675 13.2822 100.98 14.1074 100.111 14.7574C99.2424 15.4074 98.2585 15.8935 97.1583 16.2044C96.0582 16.5152 94.9434 16.6735 93.8145 16.6735H90.8181V25.6604H84V1H93.5538C94.654 1 95.7615 1.12996 96.8757 1.38431C97.9905 1.63866 99.0038 2.06257 99.9155 2.65605C100.828 3.24953 101.566 4.04088 102.13 5.04132C102.695 6.0361 102.977 7.26822 102.977 8.73214ZM96.4633 8.83956C96.4633 7.72043 96.1304 6.92347 95.4647 6.43173C94.7989 5.94564 93.9882 5.70258 93.0325 5.70258H90.8181V12.1461H93.0325C93.9882 12.1461 94.7989 11.8635 95.4647 11.2926C96.1304 10.7217 96.4633 9.90782 96.4633 8.83956Z" fill="#ACE7F0"/>
<path d="M126.196 22.6426C125.356 23.5922 124.256 24.3891 122.895 25.0278C121.534 25.6665 119.797 25.9831 117.684 25.9831C115.889 25.9831 114.26 25.6665 112.799 25.0278C111.337 24.3891 110.084 23.4904 109.042 22.3431C108 21.1957 107.19 19.8222 106.611 18.2339C106.031 16.6457 105.742 14.8935 105.742 12.9943C105.742 11.0613 106.031 9.29782 106.611 7.69826C107.19 6.09304 108 4.7252 109.042 3.58912C110.084 2.44738 111.337 1.56567 112.799 0.93828C114.26 0.310889 115.889 0 117.684 0C119.74 0 121.455 0.293952 122.83 0.88743C124.205 1.48091 125.313 2.21564 126.152 3.09738L122.417 7.1387C121.897 6.58478 121.31 6.14393 120.659 5.81611C120.007 5.49394 119.19 5.33003 118.205 5.33003C117.279 5.33003 116.475 5.52781 115.795 5.92347C115.115 6.31347 114.536 6.85614 114.058 7.54005C113.581 8.22396 113.226 9.03785 112.994 9.98176C112.763 10.92 112.647 11.9261 112.647 12.9943C112.647 14.0626 112.763 15.0574 112.994 15.9844C113.226 16.917 113.581 17.7309 114.058 18.4261C114.536 19.1213 115.122 19.6696 115.817 20.0652C116.512 20.4552 117.322 20.6531 118.249 20.6531C119.175 20.6531 119.986 20.4666 120.68 20.0992C121.375 19.7261 121.925 19.2853 122.33 18.7766L126.196 22.6426Z" fill="#ACE7F0"/>
<path d="M151.183 12.9209C151.183 14.8709 150.907 16.657 150.359 18.2679C149.807 19.8844 149.028 21.2578 148.012 22.3939C146.997 23.5356 145.761 24.4174 144.3 25.0448C142.839 25.6722 141.192 25.9831 139.369 25.9831C137.547 25.9831 135.903 25.6722 134.442 25.0448C132.98 24.4174 131.742 23.5356 130.729 22.3939C129.716 21.2578 128.934 19.8844 128.384 18.2679C127.834 16.657 127.559 14.8709 127.559 12.9209C127.559 10.9709 127.827 9.20179 128.362 7.60787C128.898 6.01961 129.672 4.66304 130.685 3.53261C131.699 2.40783 132.936 1.53739 134.398 0.921307C135.86 0.30522 137.518 0 139.369 0C141.192 0 142.839 0.30522 144.3 0.921307C145.761 1.53739 146.997 2.40783 148.012 3.53261C149.028 4.66304 149.807 6.01961 150.359 7.60787C150.907 9.20179 151.183 10.9709 151.183 12.9209ZM144.063 12.9209C144.063 11.8526 143.962 10.8635 143.759 9.94222C143.555 9.02657 143.256 8.22956 142.867 7.55695C142.478 6.88435 141.993 6.35873 141.412 5.97439C140.83 5.59004 140.153 5.39785 139.369 5.39785C138.589 5.39785 137.901 5.59004 137.308 5.97439C136.714 6.35873 136.222 6.88435 135.831 7.55695C135.44 8.22956 135.151 9.02657 134.963 9.94222C134.775 10.8635 134.68 11.8526 134.68 12.9209C134.68 13.9891 134.775 14.9896 134.963 15.9165C135.151 16.8435 135.44 17.6461 135.831 18.3187C136.222 18.9913 136.714 19.5283 137.308 19.9239C137.901 20.3196 138.589 20.5174 139.369 20.5174C140.153 20.5174 140.83 20.3196 141.412 19.9239C141.993 19.5283 142.478 18.9913 142.867 18.3187C143.256 17.6461 143.555 16.8435 143.759 15.9165C143.962 14.9896 144.063 13.9891 144.063 12.9209Z" fill="#ACE7F0"/>
<path d="M162.056 1H155.065V25.661H162.056V1Z" fill="#ACE7F0"/>
<path d="M181.147 25.3218L174.027 10.3095H173.897L174.066 25.3218H167.86V0.661316H175.499L182.58 15.8826H182.71L182.58 0.661316H188.571V25.3218H181.147Z" fill="#ACE7F0"/>
</g>
<defs>
<clipPath id="clip0_28_1621">
<rect width="189" height="26" fill="white"/>
</clipPath>
</defs>
</svg>
