
<svg width="173" height="25" viewBox="0 0 173 25" fill="none" xmlns="http://www.w3.org/2000/svg">
<path d="M21.524 12.1871C21.524 14.0149 21.2694 15.665 20.76 17.1483C20.2507 18.6372 19.4719 19.9038 18.4242 20.9538C17.376 22.0038 16.0448 22.8094 14.4293 23.3816C12.8139 23.9538 10.9001 24.2372 8.68801 24.2372H0V-0.00170898H8.68801C10.9001 -0.00170898 12.8139 0.281646 14.4293 0.853868C16.0448 1.42609 17.376 2.24271 18.4242 3.30382C19.4719 4.36493 20.2507 5.64272 20.76 7.13717C21.2694 8.63161 21.524 10.3149 21.524 12.1871ZM14.4946 12.1871C14.4946 9.7427 13.9637 7.90384 12.9013 6.6594C11.8389 5.41495 10.4634 4.79274 8.77536 4.79274H7.07261V19.4427H8.77536C10.4634 19.4427 11.8389 18.8205 12.9013 17.5761C13.9637 16.3372 14.4946 14.5371 14.4946 12.1871Z" fill="#B8E6EE"/>
<path d="M46.1479 15.2705C46.1479 16.615 45.9511 17.8705 45.5586 19.0316C45.1655 20.1983 44.5467 21.215 43.7026 22.0816C42.8586 22.9483 41.7673 23.6316 40.4281 24.1372C39.0895 24.6372 37.4741 24.8872 35.5824 24.8872C33.6902 24.8872 32.0895 24.6372 30.7798 24.1372C29.4701 23.6316 28.4004 22.9483 27.5705 22.0816C26.7413 21.215 26.1446 20.1983 25.7804 19.0316C25.4168 17.8705 25.2347 16.615 25.2347 15.2705V-0.00170898H32.2642V14.7872C32.2642 15.4761 32.3153 16.1149 32.4168 16.7038C32.5189 17.2983 32.7004 17.8094 32.9625 18.2316C33.2245 18.6538 33.5739 18.9872 34.0107 19.2372C34.4468 19.4927 35.0146 19.6149 35.7129 19.6149C36.4117 19.6149 36.9795 19.4927 37.4157 19.2372C37.8524 18.9872 38.2018 18.6538 38.4639 18.2316C38.7253 17.8094 38.9074 17.2983 39.0095 16.7038C39.1111 16.1149 39.1621 15.4761 39.1621 14.7872V-0.00170898H46.1479V15.2705Z" fill="#B8E6EE"/>
<path d="M72.4303 24.2372L72.6923 7.59825H72.5176L67.3225 24.2372H62.3889L57.3679 7.59825H57.2369L57.4553 24.2372H51.1246V-0.00170898H59.9442L64.921 15.6094H65.0956L69.9419 -0.00170898H79.285V24.2372H72.4303Z" fill="#B8E6EE"/>
<path d="M103.865 7.59825C103.865 8.94825 103.603 10.1094 103.079 11.0927C102.556 12.0705 101.857 12.8816 100.984 13.5205C100.11 14.1594 99.1211 14.6372 98.015 14.9427C96.9089 15.2483 95.7881 15.4038 94.6531 15.4038H91.6407V24.2372H84.7859V-0.00170898H94.3911C95.4972 -0.00170898 96.6106 0.126031 97.7308 0.376031C98.8517 0.626031 99.8704 1.0427 100.787 1.62603C101.704 2.20936 102.446 2.98719 103.014 3.97053C103.582 4.9483 103.865 6.15936 103.865 7.59825ZM97.3162 7.70384C97.3162 6.60384 96.9815 5.82051 96.3122 5.33717C95.6429 4.85939 94.8278 4.62048 93.867 4.62048H91.6407V10.9538H93.867C94.8278 10.9538 95.6429 10.676 96.3122 10.1149C96.9815 9.55383 97.3162 8.75384 97.3162 7.70384Z" fill="#B8E6EE"/>
<path d="M114.605 4.96493V9.8927H121.984V14.5816H114.649V24.2372H107.576V-0.00170898H122.639V4.96493H114.605Z" fill="#B8E6EE"/>
<path d="M146.828 15.2705C146.828 16.615 146.63 17.8705 146.238 19.0316C145.841 20.1983 145.223 21.215 144.384 22.0816C143.538 22.9483 142.444 23.6316 141.105 24.1372C139.766 24.6372 138.152 24.8872 136.26 24.8872C134.368 24.8872 132.768 24.6372 131.458 24.1372C130.148 23.6316 129.078 22.9483 128.249 22.0816C127.419 21.215 126.823 20.1983 126.459 19.0316C126.095 17.8705 125.913 16.615 125.913 15.2705V-0.00170898H132.942V14.7872C132.942 15.4761 132.993 16.1149 133.095 16.7038C133.197 17.2983 133.378 17.8094 133.641 18.2316C133.903 18.6538 134.252 18.9872 134.689 19.2372C135.125 19.4927 135.693 19.6149 136.392 19.6149C137.09 19.6149 137.658 19.4927 138.094 19.2372C138.53 18.9872 138.88 18.6538 139.142 18.2316C139.404 17.8094 139.586 17.2983 139.687 16.7038C139.789 16.1149 139.84 15.4761 139.84 14.7872V-0.00170898H146.828V15.2705Z" fill="#B8E6EE"/>
<path d="M165.161 24.2372L158.002 9.48159H157.872L158.048 24.2372H151.803V-0.00170898H159.488L166.601 14.9594H166.737L166.601 -0.00170898H172.631V24.2372H165.161Z" fill="#B8E6EE"/>
</svg>
