<svg width="24" height="24" viewBox="0 0 24 24" fill="none" xmlns="http://www.w3.org/2000/svg">
<path fill-rule="evenodd" clip-rule="evenodd" d="M12.4737 1.41727C13.2214 1.45273 13.8804 1.9108 14.1818 2.59347C14.2498 2.72941 14.3119 2.86242 14.3622 2.98063C14.4656 3.21705 14.6635 3.39731 14.9088 3.48005C15.1482 3.55985 15.3847 3.65447 15.6182 3.75495C16.0851 3.96182 16.617 3.9736 17.0928 3.78741C17.1815 3.75786 17.2731 3.72238 17.3618 3.68987C17.873 3.48891 18.4552 3.5835 18.8778 3.93814C19.2058 4.22775 19.5191 4.53218 19.8146 4.8543C20.317 5.40694 20.4618 6.19893 20.1899 6.89342C20.1426 7.03823 20.0895 7.1742 20.0452 7.29537C19.9506 7.53475 19.9624 7.80368 20.0777 8.03419C20.19 8.26175 20.2934 8.49518 20.385 8.7316C20.5682 9.2074 20.9346 9.59161 21.4045 9.79553C21.4873 9.83986 21.576 9.87825 21.6647 9.91667C22.1671 10.1383 22.5128 10.6171 22.5601 11.1667C22.5867 11.6012 22.5956 12.0385 22.5749 12.4759C22.5365 13.2207 22.0813 13.8826 21.3986 14.1811C21.2626 14.2521 21.1298 14.3112 21.0116 14.3614C20.7752 14.4678 20.5948 14.6659 20.512 14.9111C20.4293 15.1505 20.3377 15.3869 20.2373 15.6204C20.0304 16.0873 20.0186 16.6163 20.2048 17.0951C20.2343 17.1837 20.2697 17.2724 20.3022 17.361C20.5032 17.8752 20.4087 18.4575 20.0511 18.8801C19.7644 19.2081 19.46 19.5213 19.1378 19.8169C18.5822 20.3163 17.7932 20.4611 17.0987 20.1892C16.9539 20.1449 16.815 20.0917 16.6968 20.0444C16.4575 19.9528 16.1885 19.9647 15.958 20.0799C15.7305 20.1922 15.497 20.2926 15.2606 20.3843C14.7848 20.5704 14.4005 20.937 14.1936 21.4039C14.1523 21.4896 14.1139 21.5782 14.0755 21.6639C13.8538 22.1693 13.3751 22.5151 12.8254 22.5623C12.388 22.5889 11.9535 22.5949 11.5161 22.5771C10.7714 22.5387 10.1095 22.0836 9.80805 21.398C9.74008 21.265 9.68101 21.129 9.62782 21.0138C9.52438 20.7774 9.32635 20.5971 9.08106 20.5143C8.84168 20.4316 8.60529 20.3399 8.37182 20.2365C7.90489 20.0296 7.37287 20.0178 6.89707 20.204C6.80841 20.2336 6.71675 20.2691 6.62809 20.3045C6.11683 20.5055 5.53467 20.4079 5.11206 20.0533C4.78403 19.7666 4.47079 19.4622 4.17526 19.1401C3.67286 18.5845 3.52805 17.7955 3.79994 17.098C3.84722 16.9532 3.90048 16.8172 3.94481 16.699C4.03938 16.4597 4.02746 16.1907 3.9122 15.9573C3.7999 15.7297 3.69645 15.4992 3.60484 15.2628C3.42161 14.784 3.05518 14.4028 2.58824 14.1959C2.50254 14.1545 2.41391 14.1162 2.32821 14.0777C1.82286 13.8561 1.47708 13.3773 1.42979 12.8277C1.40319 12.3903 1.39439 11.9528 1.41507 11.5184C1.45349 10.7707 1.90853 10.1118 2.59416 9.81032C2.72714 9.73939 2.86022 9.68026 2.97843 9.63002C3.21485 9.52658 3.39511 9.32855 3.47786 9.08326C3.5606 8.84388 3.65213 8.60453 3.7526 8.37402C3.95947 7.90709 3.97429 7.37514 3.7881 6.89934C3.75559 6.81068 3.72018 6.71909 3.68767 6.63043C3.48671 6.11621 3.58426 5.53398 3.9389 5.11433C4.22556 4.7863 4.52991 4.47011 4.85203 4.17753C5.40763 3.67513 6.19666 3.53032 6.89115 3.80221C7.03596 3.84653 7.17482 3.89973 7.29303 3.94701C7.53241 4.04158 7.80134 4.02973 8.03185 3.91447C8.25941 3.80217 8.49298 3.6988 8.7294 3.60718C9.2052 3.42395 9.58935 3.05744 9.79622 2.58755C9.83759 2.5048 9.87598 2.41618 9.9144 2.32752C10.136 1.82217 10.6148 1.47935 11.1645 1.43206C11.6019 1.40251 12.0393 1.39658 12.4737 1.41727ZM11.9949 8.46565C13.9425 8.46565 15.5235 10.0467 15.5235 11.9972C15.5235 13.9447 13.9425 15.5258 11.9949 15.5258C10.0474 15.5258 8.46634 13.9447 8.46634 11.9972C8.46634 10.0467 10.0474 8.46565 11.9949 8.46565Z" fill="#B8E6EE"/>
</svg>
