
<svg width="20" height="20" viewBox="0 0 20 20" fill="none" xmlns="http://www.w3.org/2000/svg">
<path fill-rule="evenodd" clip-rule="evenodd" d="M10 20C15.5228 20 20 15.5228 20 10C20 4.47715 15.5228 0 10 0C4.47715 0 0 4.47715 0 10C0 15.5228 4.47715 20 10 20ZM8.12986 11.8H9.5C9.7357 11.8 9.85355 11.8 9.92678 11.8732C10 11.9464 10 12.0643 10 12.3V16.7299C10 17.6205 10 18.0659 10.1962 18.1091C10.3925 18.1523 10.5795 17.7482 10.9537 16.9399L13.6851 11.0402C14.2768 9.76214 14.5726 9.12308 14.2777 8.66154C13.9828 8.2 13.2786 8.2 11.8701 8.2H10.5C10.2643 8.2 10.1464 8.2 10.0732 8.12678C10 8.05355 10 7.9357 10 7.7V3.27013C10 2.37946 10 1.93413 9.80377 1.89091C9.60755 1.8477 9.42045 2.25182 9.04627 3.06006L6.31493 8.95975C5.72321 10.2379 5.42735 10.8769 5.72228 11.3385C6.01721 11.8 6.72143 11.8 8.12986 11.8Z" fill="white"/>
</svg>
