<svg width="49" height="48" viewBox="0 0 49 48" fill="none" xmlns="http://www.w3.org/2000/svg">
<path fill-rule="evenodd" clip-rule="evenodd" d="M4.73169 35.4217V12.4279C4.73169 10.6554 5.43796 8.95662 6.68603 7.70422C7.93843 6.45181 9.63736 5.74977 11.4098 5.74977H40.3493C41.5453 5.74977 42.5161 6.72049 42.5161 7.91656C42.5161 9.11262 41.5453 10.0833 40.3493 10.0833C40.3493 10.0833 16.5883 10.0833 10.4823 10.0833C9.7023 10.0833 9.06526 10.7161 9.06526 11.5004C9.06526 12.2848 9.7023 12.9175 10.4823 12.9175C16.467 12.9175 39.3569 12.9175 39.3569 12.9175C40.6179 12.9175 41.8271 13.4202 42.7198 14.3129C43.6125 15.2056 44.1151 16.4147 44.1151 17.6758V35.4217C44.1151 39.1096 41.1251 42.0955 37.4372 42.0955H11.4098C9.63736 42.0955 7.93843 41.3934 6.68603 40.141C5.43796 38.8886 4.73169 37.1941 4.73169 35.4217Z" fill="#B8E6EE"/>
</svg>
